<?xml version="1.0" encoding="UTF-8" standalone="no"?>
<!-- Created with Inkscape (http://www.inkscape.org/) -->

<svg
   xmlns:dc="http://purl.org/dc/elements/1.1/"
   xmlns:cc="http://creativecommons.org/ns#"
   xmlns:rdf="http://www.w3.org/1999/02/22-rdf-syntax-ns#"
   xmlns:svg="http://www.w3.org/2000/svg"
   xmlns="http://www.w3.org/2000/svg"
   xmlns:sodipodi="http://sodipodi.sourceforge.net/DTD/sodipodi-0.dtd"
   xmlns:inkscape="http://www.inkscape.org/namespaces/inkscape"
   width="210mm"
   height="297mm"
   viewBox="0 0 210 297"
   version="1.1"
   id="svg8"
   sodipodi:docname="drawing.svg"
   inkscape:version="0.92.3 (2405546, 2018-03-11)">
  <defs
     id="defs2" />
  <sodipodi:namedview
     id="base"
     pagecolor="#ffffff"
     bordercolor="#666666"
     borderopacity="1.0"
     inkscape:pageopacity="0.0"
     inkscape:pageshadow="2"
     inkscape:zoom="0.35"
     inkscape:cx="400"
     inkscape:cy="560"
     inkscape:document-units="mm"
     inkscape:current-layer="layer1"
     showgrid="false"
     inkscape:window-width="1280"
     inkscape:window-height="910"
     inkscape:window-x="0"
     inkscape:window-y="27"
     inkscape:window-maximized="1" />
  <metadata
     id="metadata5">
    <rdf:RDF>
      <cc:Work
         rdf:about="">
        <dc:format>image/svg+xml</dc:format>
        <dc:type
           rdf:resource="http://purl.org/dc/dcmitype/StillImage" />
        <dc:title></dc:title>
      </cc:Work>
    </rdf:RDF>
  </metadata>
  <g
     inkscape:label="Layer 1"
     inkscape:groupmode="layer"
     id="layer1">
    <rect
       id="rect10"
       width="111.88095"
       height="151.94643"
       x="55.940475"
       y="71.726196"
       style="stroke-width:0.26458332" />
    <path
       style="fill:none;stroke:#000000;stroke-width:0.26458332px;stroke-linecap:butt;stroke-linejoin:miter;stroke-opacity:1"
       d="m 92.982141,70.214285 c 0,-2.267857 0,-4.535715 0,-6.803572 0,-0.251984 0,-0.503968 0,-0.755952 0,-0.251984 -0.178178,-0.577773 0,-0.755951 0.178181,-0.178181 0.577774,0.178178 0.755952,0 0.356359,-0.35636 -0.22538,-1.061144 0,-1.511906 0.159369,-0.318738 0.596585,-0.437214 0.755954,-0.755952 0.22538,-0.450762 -0.356359,-1.155546 0,-1.511906 0.178179,-0.178178 0.577771,0.178181 0.755952,0 0.356359,-0.356359 -0.35636,-1.155544 0,-1.511903 0.178181,-0.178181 0.577773,0.178178 0.755951,0 0.35636,-0.356359 -0.356359,-1.155546 0,-1.511906 0.178181,-0.178178 0.577774,0.178181 0.755955,0 0.50297,-0.50297 -0.502971,-1.008933 0,-1.511903 0.178178,-0.178181 0.57777,0.178178 0.755951,0 0.178179,-0.178181 -0.112691,-0.530572 0,-0.755954 0.318739,-0.637474 1.193168,-0.87443 1.511904,-1.511904 0.112691,-0.225382 -0.178179,-0.577773 0,-0.755954 0.178181,-0.178178 0.577773,0.178181 0.755954,0 0.178178,-0.178178 -0.178181,-0.57777 0,-0.755951 1.564096,-1.564093 -0.06114,2.39014 1.511906,-0.755952 0.11269,-0.225383 -0.17818,-0.577773 0,-0.755952 0.17818,-0.178181 0.53057,0.112689 0.75595,0 0.63748,-0.318738 0.87443,-1.193167 1.5119,-1.511906 0.22539,-0.112691 0.57778,0.178179 0.75596,0 0.17818,-0.178181 -0.17818,-0.577773 0,-0.755951 0.17818,-0.178181 0.57777,0.178178 0.75595,0 0.17818,-0.178181 -0.17818,-0.577773 0,-0.755954 0.35636,-0.35636 1.15554,0.356359 1.5119,0 0.17818,-0.178179 -0.17817,-0.577771 0,-0.755952 0.35636,-0.356359 1.15555,0.356359 1.51191,0 0.17818,-0.178178 -0.17818,-0.577773 0,-0.755952 0.37798,-0.377975 1.88988,0.377976 2.26786,0 0.17818,-0.178181 -0.17818,-0.577773 0,-0.755951 0.0243,-0.02431 2.08451,0 2.26785,0 0.25199,0 0.57778,-0.178181 0.75596,0 0.17817,0.178178 -0.17818,0.57777 0,0.755951 0.17817,0.178179 0.57777,-0.178181 0.75595,0 0.35636,0.35636 -0.35636,1.155544 0,1.511904 0.17818,0.178181 0.53057,-0.112689 0.75595,0 3.14609,1.573048 -0.80814,-0.05219 0.75595,1.511905 0.17818,0.178179 0.57777,-0.178181 0.75596,0 0.35635,0.35636 -0.35636,1.155544 0,1.511906 0.17818,0.178179 0.57777,-0.178181 0.75595,0 0.17818,0.178179 -0.11269,0.530569 0,0.755952 0.15937,0.318738 0.59658,0.437213 0.75595,0.755952 0.11269,0.225382 -0.17818,0.577773 0,0.755951 0.17818,0.178181 0.57777,-0.178178 0.75595,0 0.17818,0.178181 -0.11269,0.530572 0,0.755954 0.15937,0.318736 0.59659,0.437214 0.75595,0.755952 0.1127,0.22538 -0.11269,0.530572 0,0.755952 0.15937,0.318738 0.59659,0.437216 0.75596,0.755954 0.11269,0.22538 -0.17818,0.577771 0,0.755952 0.17818,0.178178 0.57777,-0.178181 0.75595,0 0.17818,0.178178 -0.11269,0.530571 0,0.755951 0.31874,0.637477 1.19317,0.87443 1.5119,1.511906 0.22539,0.450763 -0.35636,1.155544 0,1.511903 0.17818,0.178181 0.57778,-0.178178 0.75596,0 0.17818,0.178181 -0.17818,0.577774 0,0.755955 0.17818,0.178178 0.57777,-0.178181 0.75595,0 0.35636,0.356359 -0.35636,1.155543 0,1.511903 0.17818,0.178181 0.57777,-0.178179 0.75595,0 0.17818,0.178181 -0.11269,0.530571 0,0.755951 0.15937,0.318739 0.59659,0.437216 0.75595,0.755955 0.11269,0.22538 -0.11269,0.530569 0,0.755951 0.31874,0.637474 1.19317,0.87443 1.51191,1.511906 0.22538,0.450763 -0.35636,1.155544 0,1.511903 0.17818,0.178181 0.57777,-0.178178 0.75595,0 0.17818,0.178181 -0.11269,0.530572 0,0.755952 0.15937,0.318738 0.59659,0.437216 0.75595,0.755954 0.11269,0.22538 -0.17818,0.577771 0,0.755952 0.17818,0.178178 0.57777,-0.178181 0.75596,0 0.15454,0.154543 -0.14987,1.968127 0,2.267857 0.15937,0.318739 0.59658,0.437214 0.75595,0.755952 0.11269,0.225383 -0.11269,0.530572 0,0.755952 0.15937,0.318738 0.59658,0.437216 0.75595,0.755954 0.14986,0.299728 -0.15454,2.113312 0,2.267857 0.17818,0.178179 0.57777,-0.178181 0.75595,0 0.23408,0.234077 -0.23408,3.545682 0,3.779761 0.17818,0.178178 0.57777,-0.178181 0.75596,0 0.0343,0.03426 0,3.423333 0,3.779761 0,1.511906 0,3.023812 0,4.535715 0,0.251984 -0.17819,0.577773 0,0.755951 0.17818,0.178181 0.50396,0 0.75595,0 0.35643,0 3.7455,0.03426 3.77976,0 0.17818,-0.178178 -0.17818,-0.57777 0,-0.755951 0.35636,-0.35636 1.15554,0.356359 1.5119,0 0.35636,-0.35636 -0.35636,-1.155544 0,-1.511903 0.74573,-0.745731 1.51191,1.549003 1.51191,-0.755955 0,-2.304957 0.76617,-0.01021 1.5119,-0.755951 0.35636,-0.35636 -0.35636,-1.155547 0,-1.511906 0.17818,-0.178179 0.57778,0.178181 0.75596,0 0.17817,-0.178179 -0.17818,-0.577771 0,-0.755952 0.17817,-0.178178 0.57777,0.178181 0.75595,0 0.17818,-0.178178 -0.17818,-0.577773 0,-0.755951 0.17818,-0.178181 0.57777,0.178178 0.75595,0 0.17818,-0.178181 -0.17818,-0.577774 0,-0.755952 0.17818,-0.178181 0.57777,0.178178 0.75595,0 0.17818,-0.178181 -0.17818,-0.577773 0,-0.755954 0.17818,-0.178179 0.57777,0.178181 0.75596,0 0.17817,-0.178179 -0.17819,-0.577774 0,-0.755952 0.17817,-0.178181 0.57777,0.178178 0.75595,0 0.35636,-0.356359 -0.35636,-1.155546 0,-1.511906 0.17818,-0.178178 0.53057,0.112692 0.75595,0 0.31874,-0.159366 0.43721,-0.596582 0.75595,-0.755951 0.22538,-0.112692 0.57777,0.178181 0.75595,0 0.17819,-0.178179 -0.11269,-0.530572 0,-0.755952 0.15937,-0.318738 0.50397,-0.503968 0.75596,-0.755952 0.25198,-0.251986 0.43721,-0.596585 0.75595,-0.755954 0.22538,-0.112691 0.57777,0.178181 0.75595,0 0.50297,-0.50297 -0.50297,-1.008933 0,-1.511903 0.17818,-0.178181 0.53057,0.112689 0.75595,0 3.1461,-1.573049 -0.80814,0.05219 0.75596,-1.511906 0.17818,-0.178178 0.53057,0.112691 0.75595,0 0.63747,-0.318738 0.87443,-1.193168 1.5119,-1.511903 0.22539,-0.112692 0.57778,0.178178 0.75596,0 0.17818,-0.178181 -0.17818,-0.577773 0,-0.755954 0.17818,-0.178179 0.57777,0.178181 0.75595,0 0,-2.015874 -0.25198,0.251983 0.75595,-0.755952 0.17818,-0.178181 -0.17818,-0.577773 0,-0.755952 0.35636,-0.356359 1.15555,0.35636 1.51191,0 0.17817,-0.178181 -0.17818,-0.577773 0,-0.755954 0.35636,-0.356359 1.15554,0.356359 1.5119,0 0.17818,-0.178178 -0.17818,-0.577771 0,-0.755952 0.17818,-0.178178 0.57777,0.178181 0.75595,0 0.17818,-0.178178 -0.17818,-0.577773 0,-0.755951 0.37798,-0.377976 1.88988,0.377976 2.26786,0 0.17818,-0.178181 -0.17818,-0.577773 0,-0.755952 0.35636,-0.356362 1.15555,0.35636 1.5119,0 0.17819,-0.178181 -0.17818,-0.577773 0,-0.755954 0.0304,-0.03042 2.7462,0 3.02381,0 0.25199,0 0.57778,-0.178178 0.75596,0 0.17818,0.178181 0,0.503968 0,0.755954 0,0.251984 0,0.503968 0,0.755952 0,4.031744 0,8.063492 0,12.095236 0,2.015874 0,4.031747 0,6.047621 0,0.340447 0.11503,2.037794 0,2.267858 -0.15937,0.318735 -0.59659,0.437213 -0.75596,0.755951 -0.0994,0.198771 0,2.628506 0,3.023809 0,2.015874 0,4.031745 0,6.047619 0,0.18334 0.0243,2.243547 0,2.267857 -0.17817,0.178181 -0.57777,-0.178178 -0.75595,0 -0.17818,0.178181 0,0.503968 0,0.755952 0,0.251983 0,0.50397 0,0.755954 0,2.015874 0,4.031744 0,6.047614 0,1.76389 0,3.52778 0,5.29167 0,0.25198 0.17818,0.57777 0,0.75595 -0.17818,0.17818 -0.57777,-0.17818 -0.75595,0 -0.17818,0.17818 0,0.50397 0,0.75596 0,1.5119 0,3.02381 0,4.53571 0,0.25198 0.17818,0.57777 0,0.75595 -0.17818,0.17818 -0.57777,-0.17818 -0.75595,0 -0.20685,0.20685 0.20505,2.61372 0,3.02381 -0.15937,0.31874 -0.59659,0.43722 -0.75596,0.75595 -0.23845,0.47691 0.23846,3.30286 0,3.77976 -0.15936,0.31874 -0.59658,0.43722 -0.75595,0.75596 -0.22538,0.45076 0.22538,1.06114 0,1.5119 -0.15937,0.31874 -0.59658,0.43722 -0.75595,0.75596 -0.20505,0.41009 0.20684,2.81696 0,3.02381 -0.17818,0.17817 -0.57777,-0.17819 -0.75595,0 -0.50297,0.50297 0.50297,1.00893 0,1.5119 -0.17818,0.17818 -0.57778,-0.17818 -0.75595,0 -0.37798,0.37797 0.37797,1.88988 0,2.26786 -0.17819,0.17818 -0.57778,-0.17818 -0.75596,0 -0.35636,0.35636 0.22538,1.06114 0,1.5119 -0.15937,0.31874 -0.59658,0.43722 -0.75595,0.75595 -0.30238,0.60476 0.30238,1.6631 0,2.26786 -0.15937,0.31874 -0.59658,0.43721 -0.75595,0.75595 -0.11269,0.22539 0.17818,0.57778 0,0.75595 -0.17818,0.17819 -0.57778,-0.17817 -0.75595,0 -0.37798,0.37798 0.37797,1.88989 0,2.26786 -0.17818,0.17818 -0.57778,-0.17818 -0.75596,0 -0.17818,0.17818 0.11269,0.53057 0,0.75596 -0.15936,0.31873 -0.59658,0.43721 -0.75595,0.75595 -0.11269,0.22538 0.11269,0.53057 0,0.75595 -0.15937,0.31874 -0.59658,0.43722 -0.75595,0.75595 -0.11269,0.22538 0.17818,0.57777 0,0.75596 -0.17818,0.17817 -0.57777,-0.17819 -0.75595,0 -0.17818,0.17817 0.11269,0.53056 0,0.75595 -0.15937,0.31874 -0.59659,0.43721 -0.75596,0.75595 -0.11269,0.22538 0.17818,0.57777 0,0.75595 -0.17818,0.17818 -0.57777,-0.17818 -0.75595,0 -0.17818,0.17818 0.11269,0.53057 0,0.75595 -0.15937,0.31874 -0.59658,0.43722 -0.75595,0.75596 -0.11269,0.22538 0.17818,0.57777 0,0.75595 -0.17818,0.17818 -0.57777,-0.17818 -0.75595,0 -0.17818,0.17818 0.17818,0.57777 0,0.75595 -0.17818,0.17818 -0.57778,-0.17818 -0.75596,0 -0.17817,0.17818 0.17818,0.57777 0,0.75595 -0.17817,0.17818 -0.57777,-0.17818 -0.75595,0 -0.17818,0.17818 0.17818,0.57778 0,0.75596 -0.17818,0.17818 -0.57777,-0.17818 -0.75595,0 -0.17818,0.17818 0.17818,0.57777 0,0.75595 -0.17818,0.17818 -0.57777,-0.17818 -0.75595,0 -0.17818,0.17818 0.17818,0.57777 0,0.75595 -0.17818,0.17818 -0.53057,-0.11269 -0.75596,0 -0.31873,0.15937 -0.43721,0.59658 -0.75595,0.75595 -0.45076,0.22539 -1.15554,-0.35636 -1.5119,0 -1.56409,1.56409 2.39014,-0.0611 -0.75595,1.51191 -0.29973,0.14986 -2.11332,-0.15455 -2.26786,0 -0.17818,0.17818 0.17818,0.57777 0,0.75595 -0.17818,0.17818 -0.53057,-0.11269 -0.75595,0 -0.31874,0.15937 -0.43722,0.59658 -0.75596,0.75595 -0.23006,0.11503 -1.92741,0 -2.26785,0 -2.01588,0 -4.03175,0 -6.04762,0 -0.25199,0 -0.50397,0 -0.75595,0 -0.25199,0 -0.57778,-0.17818 -0.75596,0 -0.17818,0.17818 0.17818,0.57777 0,0.75596 -0.17818,0.17817 -0.50396,0 -0.75595,0 -0.25198,0 -0.50397,0 -0.75595,0 -2.01588,0 -4.03175,0 -6.04762,0 -0.25198,0 -0.50397,0 -0.75595,0 -0.25199,0 -0.57778,-0.17819 -0.75596,0 -0.17817,0.17817 0.17818,0.57777 0,0.75595 -0.17817,0.17818 -0.50396,0 -0.75595,0 -0.25198,0 -0.50397,0 -0.75595,0 -2.01587,0 -4.03175,0 -6.04762,0 -2.26786,0 -4.53571,0 -6.80357,0 -0.25198,0 -0.50397,0 -0.75595,0 -0.25199,0 -0.57778,-0.17818 -0.75596,0 -0.17817,0.17818 0.17818,0.57777 0,0.75595 -0.17817,0.17818 -0.50396,0 -0.75595,0 -0.35643,0 -3.7455,-0.0343 -3.77976,0 -0.17818,0.17818 0.17818,0.57777 0,0.75595 -0.26535,0.26536 -3.257599,-0.26108 -3.779762,0 -0.318738,0.15937 -0.437213,0.59659 -0.755952,0.75596 -0.450762,0.22538 -1.061143,-0.22539 -1.511906,0 -0.318735,0.15936 -0.437213,0.59658 -0.755951,0.75595 -0.410094,0.20504 -2.816963,-0.20685 -3.023809,0 -0.178181,0.17818 0.178178,0.57777 0,0.75595 -2.015874,0 0.251984,-0.25199 -0.755952,0.75595 -0.498041,0.49804 -1.013867,-0.49804 -1.511906,0 -0.178181,0.17818 0.178181,0.57777 0,0.75595 -0.178181,0.17818 -0.577773,-0.17818 -0.755951,0 -0.178181,0.17818 0.178178,0.57778 0,0.75596 -0.498041,0.49803 -1.013868,-0.49804 -1.511906,0 -0.178179,0.17818 0.178181,0.57777 0,0.75595 -0.178179,0.17818 -0.577774,-0.17818 -0.755952,0 -0.178181,0.17818 0.178178,0.57777 0,0.75595 -0.178181,0.17818 -0.577773,-0.17818 -0.755952,0 -0.178181,0.17818 0.178179,0.57777 0,0.75595 -1.564092,1.5641 0.06114,-2.39014 -1.511905,0.75595 -0.112692,0.22539 0.178181,0.57778 0,0.75596 -1.564093,1.56409 0.06114,-2.39014 -1.511906,0.75595 -0.112689,0.22538 0.178181,0.57777 0,0.75595 -0.178179,0.17818 -0.503968,0 -0.755952,0 -0.503968,0 -1.06114,-0.22538 -1.511903,0 -0.450765,0.22539 0.356359,1.15555 0,1.51191 -0.178181,0.17818 -0.577773,-0.17818 -0.755954,0 -0.178179,0.17818 0.178181,0.57777 0,0.75595 -0.178179,0.17818 -0.503968,0 -0.755952,0 0,0.50397 0.159369,1.0338 0,1.51191 -0.225383,0.67614 -1.193168,0.87443 -1.511906,1.5119 -0.112689,0.22538 0.112691,0.53057 0,0.75595 -0.159366,0.31874 -0.596582,0.43722 -0.755951,0.75595 -0.930937,1.86188 2.194329,-0.68242 -0.755952,2.26786 -0.920737,0.92074 -1.688957,0.3541 -2.267858,1.51191 -0.112691,0.22538 0.07968,0.5169 0,0.75595 -0.178181,0.53454 -0.577773,0.97736 -0.755951,1.5119 -0.07968,0.23906 0.178178,0.57778 0,0.75595 -0.178181,0.17819 -0.577773,-0.17817 -0.755954,0 -0.35636,0.35636 0.279553,1.09258 0,1.51191 -0.395344,0.59302 -1.007936,1.00794 -1.511904,1.5119 -0.251984,0.25199 -0.596585,0.43722 -0.755951,0.75596 -0.225383,0.45076 0.356359,1.15554 0,1.5119 -0.178181,0.17818 -0.643263,-0.22538 -0.755955,0 -0.22538,0.45076 0.225383,1.06114 0,1.51191 -0.112688,0.22538 -0.57777,-0.17818 -0.755951,0 -0.178181,0.17818 0,0.50396 0,0.75595 -0.503968,0.25198 -1.113483,0.35753 -1.511906,0.75595 -7.94e-4,7.9e-4 0.0011,2.26443 0,2.26786 -0.112689,0.33807 -0.596583,0.43721 -0.755952,0.75595 -0.112691,0.22538 0.112692,0.53057 0,0.75595 -0.159369,0.31874 -0.596582,0.43722 -0.755951,0.75596 -0.112692,0.22538 0,0.50396 0,0.75595 0,0.50397 0.159369,1.0338 0,1.5119 -0.112692,0.33807 -0.596585,0.43722 -0.755952,0.75595 -0.225383,0.45077 0.22538,1.06115 0,1.51191 -0.159369,0.31874 -0.643263,0.41788 -0.755954,0.75595 -0.0011,0.003 7.94e-4,2.26714 0,2.26786 -0.39842,0.39842 -1.113483,0.35753 -1.511903,0.75595 -0.07787,0.0779 0.06282,3.59131 0,3.77976 -0.112692,0.33808 -0.596586,0.43722 -0.755955,0.75596 -0.247504,0.49501 0.223621,3.1089 0,3.77976 -0.178178,0.53454 -0.57777,0.97736 -0.755951,1.5119 -0.150252,0.45075 0,3.8033 0,4.53572 0,3.02381 0,6.04762 0,9.07143 0,3.0238 0,6.04761 0,9.07142 0,0.25199 0,0.50397 0,0.75596 0,0.25198 -0.178179,0.57777 0,0.75595 0.178181,0.17818 0.577773,-0.17818 0.755951,0 0.377979,0.37797 -0.377975,1.88988 0,2.26786 0.178181,0.17817 0.577774,-0.17819 0.755955,0 0.154543,0.15454 -0.149866,1.96812 0,2.26785 0.159369,0.31874 0.596582,0.43722 0.755951,0.75595 0.225383,0.45077 -0.356359,1.15555 0,1.51191 0.178181,0.17818 0.577773,-0.17818 0.755952,0 0.356359,0.35636 -0.35636,1.15554 0,1.5119 0.178181,0.17818 0.577773,-0.17817 0.755954,0 0.377976,0.37798 -0.377978,1.88989 0,2.26786 0.178178,0.17818 0.577771,-0.17818 0.755952,0 0.178178,0.17818 -0.178181,0.57777 0,0.75595 0.178178,0.17818 0.577773,-0.17818 0.755951,0 1.564093,1.5641 -2.39014,-0.0611 0.755952,1.51191 0.225383,0.11269 0.577773,-0.17818 0.755954,0 0.178179,0.17818 -0.178181,0.57777 0,0.75595 0.493202,0.49321 1.018702,-0.4932 1.511903,0 0.178181,0.17818 -0.178178,0.57777 0,0.75595 2.015874,0 -0.251983,-0.25198 0.755955,0.75596 0.181903,0.1819 2.841902,-0.18191 3.023809,0 0.178178,0.17817 -0.178181,0.57777 0,0.75595 0.178178,0.17818 0.503968,0 0.755951,0 2.015874,0 4.031748,0 6.047619,0 4.031747,0 8.063491,0 12.095239,0 0.183337,0 2.243545,0.0243 2.267857,0 0.178179,-0.17818 -0.178181,-0.57778 0,-0.75595 0.377976,-0.37798 1.889879,0.37797 2.267858,0 0.178178,-0.17818 -0.178181,-0.57778 0,-0.75596 1.257424,-1.25742 0.254479,1.25743 1.511903,0 0.178181,-0.17818 -0.178178,-0.57777 0,-0.75595 0.178181,-0.17818 0.503968,0 0.755952,0 0,-0.25198 -0.178179,-0.57777 0,-0.75595 0.356359,-0.35636 1.06114,0.22538 1.51191,0 0.31873,-0.15937 0.43721,-0.59658 0.75595,-0.75595 0.22538,-0.11269 0.53057,0.11269 0.75595,0 0.31874,-0.15937 0.43721,-0.59659 0.75595,-0.75596 0.22538,-0.11269 0.53057,0.11269 0.75595,0 0.31874,-0.15936 0.43722,-0.59658 0.75596,-0.75595 0.29973,-0.14986 2.11331,0.15454 2.26785,0 0.17818,-0.17818 -0.17817,-0.57777 0,-0.75595 1.7604,-1.7604 -0.24849,1.76039 1.51191,0 0.17818,-0.17818 -0.17818,-0.57777 0,-0.75595 0.37798,-0.37798 1.88988,0.37797 2.26786,0 0.17818,-0.17818 -0.17818,-0.57778 0,-0.75596 0.20684,-0.20684 2.61371,0.20505 3.02381,0 0.31873,-0.15937 0.43721,-0.59658 0.75595,-0.75595 0.27338,-0.13669 3.25397,0 3.77976,0 0.53582,0 4.34026,-0.0977 4.53571,0 1.67146,0.83573 0.23459,0.46918 0.75596,1.51191 0.15936,0.31873 0.59658,0.43721 0.75595,0.75595 0.22538,0.45076 -0.22538,1.06114 0,1.5119 0.15937,0.31874 0.59658,0.43722 0.75595,0.75596 0.22538,0.45076 -0.22538,1.06114 0,1.5119 0.15937,0.31874 0.59659,0.43722 0.75595,0.75595 0.20505,0.4101 -0.20684,2.81697 0,3.02381 0.17818,0.17818 0.57778,-0.17818 0.75596,0 0.37797,0.37798 -0.37798,1.88988 0,2.26786 0.17818,0.17818 0.57777,-0.17818 0.75595,0 0.17818,0.17818 0,0.50397 0,0.75595 0,0.25199 0,0.50397 0,0.75595 0,0.49661 -0.0889,2.84605 0,3.02381 0.11269,0.22539 0.57777,-0.17817 0.75595,0 0.17818,0.17819 0,0.50397 0,0.75596 0,0.25199 0,0.50395 0,0.75594 0,3.5278 0,7.05557 0,10.58333 0,0.27763 0.0304,2.99339 0,3.02382 -0.17818,0.17817 -0.57777,-0.17817 -0.75595,0 -0.17818,0.17817 0.17818,0.57777 0,0.75594 -0.49804,0.49805 -1.01387,-0.49802 -1.51191,0 -0.17818,0.1782 0.17818,0.5778 0,0.75597 -0.17818,0.17817 -0.57777,0.17817 -0.75595,0 -0.17818,-0.17817 0,-0.50398 0,-0.75597 0,-0.25196 -0.17818,-0.57777 0,-0.75594 0.17818,-0.17817 0.57777,0.17817 0.75595,0 0.17818,-0.17817 -0.17818,-0.57777 0,-0.75594 0.17818,-0.1782 0.57778,0.17817 0.75596,0 1.56409,-1.56411 -2.39014,0.0611 0.75595,-1.51191 0.22538,-0.11268 0.57777,0.17817 0.75595,0 0.35636,-0.35636 -0.35636,-1.15554 0,-1.51191 0.17818,-0.17817 0.50397,0 0.75595,0 0,-0.25199 -0.17818,-0.57777 0,-0.75596 0.17818,-0.17817 0.57777,0.17819 0.75596,0 0.17817,-0.17817 -0.17819,-0.57777 0,-0.75594 0.17817,-0.17818 0.57777,0.17817 0.75595,0 0.17818,-0.17818 -0.17818,-0.57778 0,-0.75595 0.17818,-0.17819 0.50397,0 0.75595,0 0,-0.25198 -0.17818,-0.57779 0,-0.75596 0.17818,-0.17817 0.57777,0.17817 0.75595,0 0.17818,-0.17817 -0.17818,-0.57777 0,-0.75594 0.17818,-0.1782 0.57777,0.17817 0.75596,0 0.17818,-0.1782 -0.17819,-0.57777 0,-0.75597 0.35635,-0.35634 1.15554,0.35637 1.5119,0 0.17818,-0.17817 -0.17818,-0.57777 0,-0.75594 0.17818,-0.17817 0.57777,0.17817 0.75595,0 0.17818,-0.17817 -0.17818,-0.57777 0,-0.75597 0.17818,-0.17817 0.53057,0.11271 0.75595,0 0.31874,-0.15936 0.43722,-0.59658 0.75596,-0.75594 0.22538,-0.11269 0.57777,0.17817 0.75595,0 0.17818,-0.17817 -0.17818,-0.57777 0,-0.75594 0.35636,-0.35637 1.15554,0.35634 1.5119,0 0.17818,-0.1782 -0.17818,-0.5778 0,-0.75597 0.35636,-0.35637 1.15555,0.35637 1.51191,0 0.17818,-0.17817 -0.17818,-0.57777 0,-0.75594 0.37797,-0.37798 1.88988,0.37796 2.26786,0 0.17817,-0.1782 -0.17818,-0.57777 0,-0.75597 0.35636,-0.35634 1.15554,0.35637 1.5119,0 0.17818,-0.17817 -0.17818,-0.57777 0,-0.75594 0.18191,-0.1819 2.84191,0.1819 3.02381,0 0.17818,-0.17817 -0.17818,-0.57777 0,-0.75596 0.37798,-0.37797 1.88988,0.37798 2.26786,0 0.17818,-0.17817 -0.17818,-0.57777 0,-0.75595 0.35636,-0.35636 1.06114,0.22538 1.5119,0 0.31874,-0.15937 0.43722,-0.59658 0.75595,-0.75595 0.45077,-0.22538 1.15555,0.35636 1.51191,0 0.17818,-0.17818 -0.17818,-0.57777 0,-0.75595 0.35636,-0.35636 1.15554,0.35636 1.5119,0 0.17818,-0.17818 -0.17818,-0.57777 0,-0.75596 0.35636,-0.35635 1.15555,0.35636 1.51191,0 0.17818,-0.17817 -0.17818,-0.57777 0,-0.75595 0.17818,-0.17818 0.57777,0.17818 0.75595,0 0.17818,-0.17818 -0.17818,-0.57777 0,-0.75595 0.17818,-0.17818 0.50397,0 0.75595,0 0.25199,0 0.50397,0 0.75596,0"
       id="path54"
       inkscape:connector-curvature="0" />
    <path
       style="fill:none;stroke:#000000;stroke-width:0.26458332px;stroke-linecap:butt;stroke-linejoin:miter;stroke-opacity:1"
       d="M 212.42262,205.52976 173.11309,108.0119"
       id="path56"
       inkscape:connector-curvature="0" />
  </g>
</svg>
